<svg width="95" height="13" viewBox="0 0 95 13" fill="none" xmlns="http://www.w3.org/2000/svg">
<path d="M4.03018 10.1293C3.45159 10.1293 2.93146 10.0185 2.46982 9.79688C2.01125 9.57221 1.645 9.26444 1.37109 8.87358C1.09718 8.48272 0.950994 8.03646 0.932528 7.5348H2.31747C2.35133 7.94105 2.53137 8.27498 2.8576 8.53658C3.18383 8.79818 3.57469 8.92898 4.03018 8.92898C4.39335 8.92898 4.71496 8.84588 4.99503 8.67969C5.27817 8.51042 5.49976 8.27805 5.6598 7.9826C5.82292 7.68714 5.90447 7.35014 5.90447 6.97159C5.90447 6.58688 5.82138 6.24373 5.65518 5.94212C5.48899 5.64051 5.25971 5.40353 4.96733 5.23118C4.67803 5.05883 4.34564 4.97112 3.97017 4.96804C3.68395 4.96804 3.39619 5.01728 3.10689 5.11577C2.81759 5.21425 2.58369 5.34351 2.40518 5.50355L1.09872 5.30966L1.62962 0.545454H6.82777V1.76882H2.81605L2.51598 4.41406H2.57138C2.75604 4.23556 3.00071 4.08629 3.3054 3.96626C3.61316 3.84624 3.94247 3.78622 4.29332 3.78622C4.86884 3.78622 5.38127 3.92318 5.83061 4.19709C6.28303 4.471 6.63849 4.84493 6.89702 5.31889C7.15862 5.78977 7.28788 6.33144 7.2848 6.94389C7.28788 7.55634 7.14938 8.10263 6.86932 8.58274C6.59233 9.06286 6.20762 9.44141 5.7152 9.71839C5.22585 9.99231 4.66418 10.1293 4.03018 10.1293ZM13.3393 10H11.8251L15.2275 0.545454H16.8755L20.2779 10H18.7637L16.0907 2.26278H16.0169L13.3393 10ZM13.5932 6.29758H18.5051V7.49787H13.5932V6.29758ZM26.0242 7.0593V2.90909H27.4092V10H26.0519V8.77202H25.9781C25.815 9.15057 25.5534 9.46603 25.1933 9.71839C24.8363 9.96768 24.3915 10.0923 23.8591 10.0923C23.4036 10.0923 23.0004 9.99231 22.6496 9.79226C22.3018 9.58913 22.0279 9.28906 21.8279 8.89205C21.6309 8.49503 21.5324 8.00414 21.5324 7.41939V2.90909H22.9127V7.2532C22.9127 7.73639 23.0466 8.12109 23.3144 8.40732C23.5821 8.69354 23.9299 8.83665 24.3577 8.83665C24.6162 8.83665 24.8732 8.77202 25.1286 8.64276C25.3872 8.51349 25.6011 8.31806 25.7703 8.05646C25.9427 7.79486 26.0273 7.46248 26.0242 7.0593ZM32.2369 12.8068C31.6737 12.8068 31.1889 12.733 30.7827 12.5852C30.3795 12.4375 30.0502 12.2421 29.7947 11.9989C29.5393 11.7558 29.3485 11.4896 29.2223 11.2003L30.4087 10.7109C30.4918 10.8464 30.6026 10.9895 30.7411 11.1403C30.8827 11.2942 31.0735 11.425 31.3136 11.5327C31.5567 11.6404 31.8691 11.6942 32.2507 11.6942C32.7739 11.6942 33.2063 11.5665 33.5479 11.3111C33.8896 11.0587 34.0604 10.6555 34.0604 10.1016V8.70739H33.9727C33.8896 8.85819 33.7695 9.02592 33.6126 9.21058C33.4587 9.39524 33.2463 9.55528 32.9755 9.6907C32.7047 9.82611 32.3523 9.89382 31.9183 9.89382C31.3582 9.89382 30.8535 9.76302 30.4041 9.50142C29.9579 9.23674 29.6039 8.84742 29.3423 8.33345C29.0838 7.81641 28.9545 7.18087 28.9545 6.42685C28.9545 5.67282 29.0823 5.02651 29.3377 4.48793C29.5962 3.94934 29.9502 3.53693 30.3995 3.25071C30.8488 2.96141 31.3582 2.81676 31.9276 2.81676C32.3677 2.81676 32.7231 2.89062 32.994 3.03835C33.2648 3.183 33.4756 3.35227 33.6264 3.54616C33.7803 3.74006 33.8988 3.91087 33.9819 4.05859H34.0835V2.90909H35.4361V10.157C35.4361 10.7663 35.2945 11.2665 35.0114 11.6573C34.7282 12.0482 34.3451 12.3375 33.8619 12.5252C33.3817 12.7129 32.8401 12.8068 32.2369 12.8068ZM32.223 8.74893C32.62 8.74893 32.9555 8.65661 33.2294 8.47195C33.5064 8.28421 33.7157 8.01645 33.8572 7.66868C34.0019 7.31783 34.0742 6.89773 34.0742 6.40838C34.0742 5.93134 34.0034 5.51125 33.8619 5.14808C33.7203 4.78492 33.5125 4.50178 33.2386 4.29865C32.9647 4.09245 32.6262 3.98935 32.223 3.98935C31.8075 3.98935 31.4613 4.09706 31.1843 4.3125C30.9073 4.52486 30.698 4.81416 30.5565 5.1804C30.418 5.54664 30.3487 5.95597 30.3487 6.40838C30.3487 6.87311 30.4195 7.28089 30.5611 7.63175C30.7027 7.9826 30.9119 8.25651 31.1889 8.45348C31.469 8.65045 31.8137 8.74893 32.223 8.74893ZM41.7791 7.0593V2.90909H43.1641V10H41.8068V8.77202H41.733C41.5698 9.15057 41.3082 9.46603 40.9482 9.71839C40.5911 9.96768 40.1464 10.0923 39.614 10.0923C39.1585 10.0923 38.7553 9.99231 38.4045 9.79226C38.0567 9.58913 37.7828 9.28906 37.5827 8.89205C37.3858 8.49503 37.2873 8.00414 37.2873 7.41939V2.90909H38.6676V7.2532C38.6676 7.73639 38.8015 8.12109 39.0692 8.40732C39.337 8.69354 39.6848 8.83665 40.1126 8.83665C40.3711 8.83665 40.6281 8.77202 40.8835 8.64276C41.142 8.51349 41.3559 8.31806 41.5252 8.05646C41.6976 7.79486 41.7822 7.46248 41.7791 7.0593ZM50.3323 4.64027L49.0812 4.86186C49.0289 4.70182 48.9458 4.54948 48.8319 4.40483C48.7211 4.26018 48.5703 4.14169 48.3795 4.04936C48.1887 3.95703 47.9502 3.91087 47.664 3.91087C47.2731 3.91087 46.9469 3.99858 46.6853 4.17401C46.4237 4.34635 46.2929 4.56948 46.2929 4.84339C46.2929 5.08037 46.3806 5.27119 46.556 5.41584C46.7314 5.56049 47.0146 5.67898 47.4055 5.77131L48.5319 6.02983C49.1843 6.18063 49.6706 6.413 49.9907 6.72692C50.3108 7.04084 50.4708 7.44863 50.4708 7.95028C50.4708 8.375 50.3477 8.75355 50.1015 9.08594C49.8583 9.41525 49.5183 9.67377 49.0812 9.86151C48.6473 10.0492 48.1441 10.1431 47.5716 10.1431C46.7776 10.1431 46.1298 9.97384 45.6281 9.6353C45.1265 9.29368 44.8187 8.80895 44.7048 8.18111L46.039 7.97798C46.1221 8.32576 46.2929 8.5889 46.5514 8.7674C46.8099 8.94283 47.1469 9.03054 47.5624 9.03054C48.0148 9.03054 48.3765 8.93667 48.6473 8.74893C48.9181 8.55812 49.0535 8.32576 49.0535 8.05185C49.0535 7.83026 48.9704 7.64406 48.8042 7.49325C48.6411 7.34245 48.3903 7.22857 48.0518 7.15163L46.8515 6.88849C46.1898 6.73769 45.7004 6.49763 45.3834 6.16832C45.0695 5.83901 44.9126 5.42199 44.9126 4.91726C44.9126 4.4987 45.0295 4.13246 45.2634 3.81854C45.4973 3.50462 45.8205 3.25994 46.2329 3.08452C46.6453 2.90601 47.1177 2.81676 47.6501 2.81676C48.4165 2.81676 49.0197 2.98295 49.4598 3.31534C49.8999 3.64465 50.1907 4.08629 50.3323 4.64027ZM55.2985 2.90909V4.01705H51.4252V2.90909H55.2985ZM52.464 1.21023H53.8443V7.91797C53.8443 8.18572 53.8843 8.38731 53.9643 8.52273C54.0443 8.65507 54.1474 8.74586 54.2736 8.7951C54.4029 8.84126 54.5429 8.86435 54.6937 8.86435C54.8045 8.86435 54.9015 8.85665 54.9846 8.84126C55.0676 8.82588 55.1323 8.81357 55.1784 8.80433L55.4277 9.9446C55.3477 9.97538 55.2338 10.0062 55.0861 10.0369C54.9384 10.0708 54.7537 10.0893 54.5321 10.0923C54.169 10.0985 53.8304 10.0339 53.5165 9.89844C53.2026 9.76302 52.9487 9.55374 52.7548 9.2706C52.5609 8.98745 52.464 8.63198 52.464 8.20419V1.21023ZM58.6212 8.70739L58.5519 9.21058C58.5058 9.5799 58.4273 9.96461 58.3165 10.3647C58.2088 10.7679 58.0964 11.1418 57.9795 11.4865C57.8656 11.8312 57.7718 12.1051 57.6979 12.3082H56.7192C56.7592 12.1174 56.8146 11.8589 56.8854 11.5327C56.9562 11.2095 57.0254 10.8479 57.0931 10.4478C57.1608 10.0477 57.2116 9.63991 57.2455 9.22443L57.2916 8.70739H58.6212ZM63.8401 10V8.96591L67.0393 5.65128C67.3809 5.29119 67.6626 4.97573 67.8841 4.7049C68.1088 4.43099 68.2765 4.17093 68.3873 3.92472C68.4981 3.6785 68.5535 3.4169 68.5535 3.13991C68.5535 2.82599 68.4797 2.55516 68.3319 2.32741C68.1842 2.09659 67.9826 1.91963 67.7272 1.79652C67.4717 1.67034 67.184 1.60724 66.8639 1.60724C66.5254 1.60724 66.2299 1.67649 65.9775 1.81499C65.7252 1.95348 65.5313 2.14891 65.3959 2.40128C65.2604 2.65365 65.1927 2.9491 65.1927 3.28764H63.8309C63.8309 2.71212 63.9632 2.20893 64.2279 1.77805C64.4926 1.34718 64.8557 1.01326 65.3174 0.776278C65.779 0.536221 66.3038 0.416193 66.8916 0.416193C67.4856 0.416193 68.0088 0.534682 68.4612 0.771662C68.9167 1.00556 69.2722 1.32564 69.5276 1.73189C69.7831 2.13506 69.9108 2.59055 69.9108 3.09837C69.9108 3.44922 69.8446 3.79238 69.7123 4.12784C69.583 4.4633 69.3568 4.83724 69.0336 5.24964C68.7105 5.65897 68.2612 6.15601 67.6856 6.74077L65.8067 8.70739V8.77663H70.0631V10H63.8401ZM75.1043 10.157C74.3749 10.1539 73.7517 9.96153 73.2346 9.5799C72.7176 9.19827 72.3221 8.64276 72.0482 7.91335C71.7743 7.18395 71.6373 6.30528 71.6373 5.27734C71.6373 4.25249 71.7743 3.37689 72.0482 2.65057C72.3252 1.92424 72.7222 1.37026 73.2393 0.988636C73.7594 0.607007 74.3811 0.416193 75.1043 0.416193C75.8276 0.416193 76.4477 0.608546 76.9648 0.993252C77.4818 1.37488 77.8773 1.92886 78.1512 2.65518C78.4282 3.37843 78.5667 4.25249 78.5667 5.27734C78.5667 6.30836 78.4297 7.18857 78.1558 7.91797C77.8819 8.64429 77.4864 9.19981 76.9694 9.58452C76.4523 9.96615 75.8306 10.157 75.1043 10.157ZM75.1043 8.92436C75.7445 8.92436 76.2446 8.61198 76.6047 7.98722C76.9678 7.36245 77.1494 6.45916 77.1494 5.27734C77.1494 4.49254 77.0663 3.82931 76.9001 3.28764C76.737 2.7429 76.5016 2.33049 76.1938 2.05043C75.8891 1.76728 75.526 1.62571 75.1043 1.62571C74.4672 1.62571 73.9671 1.93963 73.604 2.56747C73.2408 3.19531 73.0577 4.0986 73.0546 5.27734C73.0546 6.06522 73.1362 6.73153 73.2993 7.27628C73.4655 7.81795 73.7009 8.22881 74.0056 8.50888C74.3103 8.78587 74.6765 8.92436 75.1043 8.92436ZM80.2044 10V8.96591L83.4036 5.65128C83.7452 5.29119 84.0268 4.97573 84.2484 4.7049C84.4731 4.43099 84.6408 4.17093 84.7516 3.92472C84.8624 3.6785 84.9178 3.4169 84.9178 3.13991C84.9178 2.82599 84.8439 2.55516 84.6962 2.32741C84.5485 2.09659 84.3469 1.91963 84.0914 1.79652C83.836 1.67034 83.5482 1.60724 83.2282 1.60724C82.8896 1.60724 82.5942 1.67649 82.3418 1.81499C82.0894 1.95348 81.8955 2.14891 81.7601 2.40128C81.6247 2.65365 81.557 2.9491 81.557 3.28764H80.1951C80.1951 2.71212 80.3275 2.20893 80.5922 1.77805C80.8568 1.34718 81.22 1.01326 81.6816 0.776278C82.1433 0.536221 82.668 0.416193 83.2559 0.416193C83.8498 0.416193 84.373 0.534682 84.8255 0.771662C85.281 1.00556 85.6364 1.32564 85.8919 1.73189C86.1473 2.13506 86.275 2.59055 86.275 3.09837C86.275 3.44922 86.2089 3.79238 86.0765 4.12784C85.9473 4.4633 85.7211 4.83724 85.3979 5.24964C85.0748 5.65897 84.6254 6.15601 84.0499 6.74077L82.171 8.70739V8.77663H86.4274V10H80.2044ZM88.177 10V8.96591L91.3762 5.65128C91.7179 5.29119 91.9995 4.97573 92.2211 4.7049C92.4457 4.43099 92.6135 4.17093 92.7243 3.92472C92.8351 3.6785 92.8904 3.4169 92.8904 3.13991C92.8904 2.82599 92.8166 2.55516 92.6689 2.32741C92.5211 2.09659 92.3195 1.91963 92.0641 1.79652C91.8087 1.67034 91.5209 1.60724 91.2008 1.60724C90.8623 1.60724 90.5668 1.67649 90.3145 1.81499C90.0621 1.95348 89.8682 2.14891 89.7328 2.40128C89.5974 2.65365 89.5297 2.9491 89.5297 3.28764H88.1678C88.1678 2.71212 88.3001 2.20893 88.5648 1.77805C88.8295 1.34718 89.1926 1.01326 89.6543 0.776278C90.1159 0.536221 90.6407 0.416193 91.2285 0.416193C91.8225 0.416193 92.3457 0.534682 92.7981 0.771662C93.2536 1.00556 93.6091 1.32564 93.8645 1.73189C94.12 2.13506 94.2477 2.59055 94.2477 3.09837C94.2477 3.44922 94.1815 3.79238 94.0492 4.12784C93.9199 4.4633 93.6937 4.83724 93.3706 5.24964C93.0474 5.65897 92.5981 6.15601 92.0225 6.74077L90.1436 8.70739V8.77663H94.4V10H88.177Z" fill="#B7B7B7"/>
</svg>
