<svg width="93" height="12" viewBox="0 0 93 12" fill="none" xmlns="http://www.w3.org/2000/svg">
<path d="M0.198509 11V0.0909088H4.087C4.93217 0.0909088 5.63352 0.236505 6.19105 0.527698C6.75213 0.818892 7.17116 1.22195 7.44815 1.73686C7.72514 2.24822 7.86364 2.83949 7.86364 3.51065C7.86364 4.17827 7.72337 4.76598 7.44283 5.27379C7.16584 5.77805 6.7468 6.17045 6.18572 6.45099C5.6282 6.73153 4.92685 6.8718 4.08168 6.8718H1.13601V5.4549H3.93253C4.4652 5.4549 4.89844 5.37855 5.23224 5.22585C5.5696 5.07315 5.81641 4.85121 5.97266 4.56001C6.12891 4.26882 6.20703 3.91903 6.20703 3.51065C6.20703 3.09872 6.12713 2.74183 5.96733 2.43999C5.81108 2.13814 5.56428 1.90732 5.22692 1.74751C4.89311 1.58416 4.45455 1.50249 3.91122 1.50249H1.84446V11H0.198509ZM5.58381 6.07812L8.27912 11H6.40412L3.76207 6.07812H5.58381ZM13.1624 11.1651C12.3563 11.1651 11.662 10.9929 11.0796 10.6484C10.5008 10.3004 10.0534 9.81214 9.7373 9.18359C9.4248 8.55149 9.26855 7.81108 9.26855 6.96236C9.26855 6.12429 9.4248 5.38565 9.7373 4.74645C10.0534 4.10724 10.4937 3.60831 11.0583 3.24964C11.6265 2.89098 12.2906 2.71165 13.0505 2.71165C13.5122 2.71165 13.9596 2.788 14.3928 2.9407C14.8261 3.09339 15.2149 3.3331 15.5594 3.6598C15.9039 3.98651 16.1755 4.41087 16.3744 4.93288C16.5732 5.45135 16.6727 6.08168 16.6727 6.82386V7.38849H10.1688V6.19531H15.1119C15.1119 5.77628 15.0267 5.40518 14.8563 5.08203C14.6858 4.75533 14.4461 4.49787 14.1372 4.30966C13.8318 4.12145 13.4731 4.02734 13.0612 4.02734C12.6137 4.02734 12.2231 4.13743 11.8893 4.3576C11.559 4.57422 11.3034 4.85831 11.1222 5.20987C10.9447 5.55788 10.8559 5.93608 10.8559 6.34446V7.27663C10.8559 7.82351 10.9518 8.28871 11.1436 8.67223C11.3389 9.05575 11.6105 9.34872 11.9585 9.55114C12.3066 9.75 12.7132 9.84943 13.1784 9.84943C13.4802 9.84943 13.7554 9.80682 14.004 9.72159C14.2526 9.63281 14.4674 9.50142 14.6485 9.32741C14.8296 9.15341 14.9681 8.93857 15.064 8.68288L16.5715 8.95455C16.4507 9.39844 16.2341 9.78729 15.9216 10.1211C15.6127 10.4513 15.2238 10.7088 14.7551 10.8935C14.2899 11.0746 13.759 11.1651 13.1624 11.1651ZM20.8208 11.1811C20.3024 11.1811 19.8336 11.0852 19.4146 10.8935C18.9956 10.6982 18.6635 10.4158 18.4185 10.0465C18.177 9.6772 18.0563 9.22443 18.0563 8.68821C18.0563 8.22656 18.1451 7.84659 18.3226 7.5483C18.5002 7.25 18.7399 7.01385 19.0417 6.83984C19.3436 6.66584 19.6809 6.53445 20.0538 6.44567C20.4267 6.35689 20.8066 6.28942 21.1937 6.24325C21.6838 6.18643 22.0815 6.14027 22.3869 6.10476C22.6923 6.0657 22.9142 6.00355 23.0527 5.91832C23.1912 5.8331 23.2605 5.6946 23.2605 5.50284V5.46555C23.2605 5.00035 23.1291 4.63991 22.8663 4.38423C22.6071 4.12855 22.22 4.00071 21.7051 4.00071C21.1689 4.00071 20.7463 4.11967 20.4373 4.3576C20.1319 4.59197 19.9206 4.85298 19.8034 5.14062L18.3066 4.79972C18.4842 4.30256 18.7434 3.90128 19.0843 3.59588C19.4288 3.28693 19.8248 3.06321 20.2722 2.92472C20.7196 2.78267 21.1902 2.71165 21.6838 2.71165C22.0105 2.71165 22.3567 2.75071 22.7225 2.82884C23.0918 2.90341 23.4363 3.0419 23.7559 3.24432C24.079 3.44673 24.3436 3.73615 24.5495 4.11257C24.7555 4.48544 24.8585 4.97017 24.8585 5.56676V11H23.3031V9.88139H23.2392C23.1362 10.0874 22.9817 10.2898 22.7757 10.4886C22.5698 10.6875 22.3052 10.8526 21.9821 10.984C21.6589 11.1154 21.2718 11.1811 20.8208 11.1811ZM21.1671 9.9027C21.6074 9.9027 21.9838 9.8157 22.2963 9.64169C22.6124 9.46768 22.8521 9.24041 23.0154 8.95987C23.1824 8.67578 23.2658 8.37216 23.2658 8.04901V6.99432C23.209 7.05114 23.0989 7.1044 22.9355 7.15412C22.7757 7.20028 22.5929 7.24112 22.3869 7.27663C22.1809 7.30859 21.9803 7.33878 21.785 7.36719C21.5897 7.39205 21.4263 7.41335 21.2949 7.43111C20.986 7.47017 20.7037 7.53587 20.448 7.6282C20.1958 7.72053 19.9934 7.85369 19.8407 8.0277C19.6916 8.19815 19.617 8.42543 19.617 8.70952C19.617 9.10369 19.7626 9.40199 20.0538 9.6044C20.345 9.80327 20.7161 9.9027 21.1671 9.9027ZM30.0427 11.1598C29.3822 11.1598 28.7927 10.9911 28.2742 10.6538C27.7593 10.3129 27.3545 9.82812 27.0597 9.19957C26.7686 8.56747 26.623 7.8093 26.623 6.92507C26.623 6.04084 26.7703 5.28445 27.0651 4.65589C27.3634 4.02734 27.7718 3.54616 28.2902 3.21236C28.8087 2.87855 29.3964 2.71165 30.0534 2.71165C30.5612 2.71165 30.9695 2.79688 31.2785 2.96733C31.591 3.13423 31.8325 3.32955 32.0029 3.55327C32.1769 3.77699 32.3119 3.97408 32.4078 4.14453H32.5036V0.0909088H34.0963V11H32.5409V9.72692H32.4078C32.3119 9.90092 32.1734 10.0998 31.9923 10.3235C31.8147 10.5472 31.5697 10.7425 31.2572 10.9094C30.9447 11.0763 30.5399 11.1598 30.0427 11.1598ZM30.3943 9.80149C30.8524 9.80149 31.2394 9.68075 31.5555 9.43928C31.8751 9.19425 32.1166 8.85511 32.2799 8.42188C32.4468 7.98864 32.5303 7.48437 32.5303 6.90909C32.5303 6.34091 32.4486 5.84375 32.2852 5.41761C32.1219 4.99148 31.8822 4.65945 31.5661 4.42152C31.2501 4.18359 30.8595 4.06463 30.3943 4.06463C29.9149 4.06463 29.5154 4.18892 29.1958 4.4375C28.8762 4.68608 28.6347 5.02521 28.4713 5.4549C28.3115 5.88459 28.2316 6.36932 28.2316 6.90909C28.2316 7.45597 28.3133 7.9478 28.4767 8.38459C28.64 8.82138 28.8815 9.16761 29.2011 9.4233C29.5242 9.67543 29.922 9.80149 30.3943 9.80149ZM40.3392 11V2.81818H41.868V4.14986H41.9692C42.1396 3.69886 42.4184 3.3473 42.8055 3.09517C43.1926 2.83949 43.656 2.71165 44.1958 2.71165C44.7426 2.71165 45.2007 2.83949 45.57 3.09517C45.9429 3.35085 46.2181 3.70241 46.3957 4.14986H46.4809C46.6762 3.71307 46.9869 3.36506 47.4131 3.10582C47.8392 2.84304 48.347 2.71165 48.9365 2.71165C49.6787 2.71165 50.2842 2.94425 50.7529 3.40945C51.2252 3.87464 51.4614 4.57599 51.4614 5.51349V11H49.8687V5.66264C49.8687 5.10866 49.7178 4.70739 49.4159 4.45881C49.1141 4.21023 48.7536 4.08594 48.3346 4.08594C47.8161 4.08594 47.4131 4.24574 47.1254 4.56534C46.8378 4.88139 46.694 5.288 46.694 5.78516V11H45.1066V5.56143C45.1066 5.11754 44.9681 4.76065 44.6911 4.49077C44.4142 4.22088 44.0537 4.08594 43.6098 4.08594C43.308 4.08594 43.0292 4.16584 42.7735 4.32564C42.5214 4.48189 42.3172 4.70028 42.161 4.98082C42.0083 5.26136 41.9319 5.58629 41.9319 5.95561V11H40.3392ZM57.0424 11.1651C56.2754 11.1651 55.606 10.9893 55.0343 10.6378C54.4625 10.2862 54.0186 9.79439 53.7026 9.16229C53.3865 8.53018 53.2285 7.79155 53.2285 6.94638C53.2285 6.09766 53.3865 5.35547 53.7026 4.71982C54.0186 4.08416 54.4625 3.59055 55.0343 3.23899C55.606 2.88743 56.2754 2.71165 57.0424 2.71165C57.8095 2.71165 58.4789 2.88743 59.0506 3.23899C59.6223 3.59055 60.0662 4.08416 60.3823 4.71982C60.6983 5.35547 60.8564 6.09766 60.8564 6.94638C60.8564 7.79155 60.6983 8.53018 60.3823 9.16229C60.0662 9.79439 59.6223 10.2862 59.0506 10.6378C58.4789 10.9893 57.8095 11.1651 57.0424 11.1651ZM57.0478 9.82812C57.5449 9.82812 57.9569 9.69673 58.2836 9.43395C58.6103 9.17116 58.8517 8.82138 59.008 8.38459C59.1678 7.9478 59.2477 7.46662 59.2477 6.94105C59.2477 6.41903 59.1678 5.93963 59.008 5.50284C58.8517 5.0625 58.6103 4.70916 58.2836 4.44283C57.9569 4.17649 57.5449 4.04332 57.0478 4.04332C56.5471 4.04332 56.1316 4.17649 55.8013 4.44283C55.4746 4.70916 55.2314 5.0625 55.0716 5.50284C54.9153 5.93963 54.8372 6.41903 54.8372 6.94105C54.8372 7.46662 54.9153 7.9478 55.0716 8.38459C55.2314 8.82138 55.4746 9.17116 55.8013 9.43395C56.1316 9.69673 56.5471 9.82812 57.0478 9.82812ZM62.6341 11V2.81818H64.1736V4.1179H64.2588C64.4079 3.67756 64.6707 3.33132 65.0471 3.07919C65.4271 2.82351 65.8568 2.69567 66.3362 2.69567C66.4356 2.69567 66.5528 2.69922 66.6878 2.70632C66.8263 2.71342 66.9346 2.7223 67.0127 2.73295V4.25639C66.9488 4.23864 66.8351 4.21911 66.6718 4.1978C66.5084 4.17294 66.3451 4.16051 66.1817 4.16051C65.8053 4.16051 65.4697 4.24041 65.175 4.40021C64.8838 4.55646 64.653 4.77486 64.4825 5.0554C64.3121 5.33239 64.2268 5.64844 64.2268 6.00355V11H62.6341ZM71.6243 11.1651C70.8182 11.1651 70.1239 10.9929 69.5415 10.6484C68.9627 10.3004 68.5153 9.81214 68.1992 9.18359C67.8867 8.55149 67.7305 7.81108 67.7305 6.96236C67.7305 6.12429 67.8867 5.38565 68.1992 4.74645C68.5153 4.10724 68.9556 3.60831 69.5202 3.24964C70.0884 2.89098 70.7525 2.71165 71.5124 2.71165C71.9741 2.71165 72.4215 2.788 72.8548 2.9407C73.288 3.09339 73.6768 3.3331 74.0213 3.6598C74.3658 3.98651 74.6374 4.41087 74.8363 4.93288C75.0352 5.45135 75.1346 6.08168 75.1346 6.82386V7.38849H68.6307V6.19531H73.5739C73.5739 5.77628 73.4886 5.40518 73.3182 5.08203C73.1477 4.75533 72.908 4.49787 72.5991 4.30966C72.2937 4.12145 71.935 4.02734 71.5231 4.02734C71.0756 4.02734 70.685 4.13743 70.3512 4.3576C70.021 4.57422 69.7653 4.85831 69.5842 5.20987C69.4066 5.55788 69.3178 5.93608 69.3178 6.34446V7.27663C69.3178 7.82351 69.4137 8.28871 69.6055 8.67223C69.8008 9.05575 70.0724 9.34872 70.4205 9.55114C70.7685 9.75 71.1751 9.84943 71.6403 9.84943C71.9421 9.84943 72.2173 9.80682 72.4659 9.72159C72.7145 9.63281 72.9293 9.50142 73.1104 9.32741C73.2915 9.15341 73.43 8.93857 73.5259 8.68288L75.0334 8.95455C74.9126 9.39844 74.696 9.78729 74.3835 10.1211C74.0746 10.4513 73.6857 10.7088 73.217 10.8935C72.7518 11.0746 72.2209 11.1651 71.6243 11.1651ZM87.6683 11.1971L86.7095 10.2489L90.0387 6.91974H81.6758V5.5348H90.0387L86.7095 2.21094L87.6683 1.25746L92.6381 6.22727L87.6683 11.1971Z" fill="#D9852C"/>
</svg>
